<svg xmlns="http://www.w3.org/2000/svg" version="1.1" width="500px" height="500px" style="shape-rendering:geometricPrecision; text-rendering:geometricPrecision; image-rendering:optimizeQuality; fill-rule:evenodd; clip-rule:evenodd" xmlns:xlink="http://www.w3.org/1999/xlink">
  <rect width="100%" height="100%" fill="#FFFFFF" />
  <g><path style="opacity:0.999" fill="#f9f8f8" d="M 239.5,152.5 C 238.175,165.006 238.175,177.673 239.5,190.5C 240.107,190.376 240.44,190.043 240.5,189.5C 243.472,187.359 245.972,184.692 248,181.5C 249.235,173.577 249.902,165.577 250,157.5C 250.498,155.456 251.665,154.122 253.5,153.5C 258.079,152.358 261.746,150.691 264.5,148.5C 270.235,146.447 276.235,144.947 282.5,144C 293.008,143.175 303.342,143.341 313.5,144.5C 312.761,144.369 312.094,144.536 311.5,145C 314.615,145.03 317.115,146.197 319,148.5C 323.535,146.784 327.368,147.784 330.5,151.5C 331.293,151.069 332.127,150.735 333,150.5C 338.143,152.658 343.31,154.658 348.5,156.5C 349.492,156.328 350.158,156.662 350.5,157.5C 353.175,159.342 355.342,161.676 357,164.5C 357.671,163.748 358.504,163.414 359.5,163.5C 361.404,163.738 362.738,164.738 363.5,166.5C 366.848,170.847 370.848,174.514 375.5,177.5C 387.416,189.983 395.749,204.65 400.5,221.5C 399.903,221.735 399.57,222.235 399.5,223C 399.954,225.03 400.62,226.863 401.5,228.5C 409.502,276.336 393.835,314.502 354.5,343C 353.552,343.483 352.552,343.649 351.5,343.5C 348.297,344.683 345.13,346.016 342,347.5C 340.238,347.056 340.405,346.556 342.5,346C 341.646,344.978 340.646,344.145 339.5,343.5C 337.342,346.671 335.008,349.671 332.5,352.5C 326.29,353.883 320.29,355.549 314.5,357.5C 292.917,361.206 272.251,358.206 252.5,348.5C 251.066,346.78 250.233,344.78 250,342.5C 249.333,328.5 249.333,314.5 250,300.5C 250.333,300.167 250.667,299.833 251,299.5C 266.855,313.562 285.355,319.395 306.5,317C 318.783,314.854 329.783,310.02 339.5,302.5C 341.027,302.573 342.027,301.906 342.5,300.5C 346.892,295.444 350.892,290.111 354.5,284.5C 356.942,284.881 357.609,284.214 356.5,282.5C 357.263,281.281 358.263,280.281 359.5,279.5C 358.873,278.583 358.539,277.583 358.5,276.5C 359.13,272.952 360.13,269.619 361.5,266.5C 362.38,264.863 363.046,263.03 363.5,261C 363.43,260.235 363.097,259.735 362.5,259.5C 364.216,224.606 349.216,200.273 317.5,186.5C 315.287,184.688 312.953,184.355 310.5,185.5C 284.39,180.705 262.557,188.371 245,208.5C 242.938,210.901 241.271,213.567 240,216.5C 239.114,261.182 238.781,305.849 239,350.5C 238.87,354.939 236.704,357.772 232.5,359C 223.167,359.667 213.833,359.667 204.5,359C 202.714,358.215 201.214,357.049 200,355.5C 181.968,318.105 163.968,280.772 146,243.5C 145.667,279.833 145.333,316.167 145,352.5C 144.388,355.115 142.888,356.781 140.5,357.5C 130.37,358.12 120.37,358.786 110.5,359.5C 109.508,359.672 108.842,359.338 108.5,358.5C 106.404,356.567 104.904,354.233 104,351.5C 103.833,283.999 103.333,216.665 102.5,149.5C 103.568,146.925 105.235,144.758 107.5,143C 117.833,142.333 128.167,142.333 138.5,143C 139.5,143.5 140.5,144 141.5,144.5C 155.611,170.388 168.944,196.722 181.5,223.5C 183.319,228.478 185.153,233.478 187,238.5C 188.469,241.584 190.302,244.417 192.5,247C 192.167,247.333 191.833,247.667 191.5,248C 192.479,250.137 193.812,251.971 195.5,253.5C 196.292,252.3 196.292,250.967 195.5,249.5C 196.79,219.66 196.79,189.66 195.5,159.5C 195.673,155.459 196.173,151.459 197,147.5C 199.561,143.25 203.394,141.417 208.5,142C 216.502,141.857 224.502,142.19 232.5,143C 236.567,144.899 238.9,148.066 239.5,152.5 Z M 295.5,245.5 C 300.101,245.433 302.434,247.767 302.5,252.5C 299.596,257.451 296.096,257.784 292,253.5C 291.279,249.946 292.446,247.28 295.5,245.5 Z"/></g>
  <g><path style="opacity:1" fill="#e0e0e0" d="M 313.5,144.5 C 326.107,145.981 337.774,149.981 348.5,156.5C 343.31,154.658 338.143,152.658 333,150.5C 332.127,150.735 331.293,151.069 330.5,151.5C 327.368,147.784 323.535,146.784 319,148.5C 317.115,146.197 314.615,145.03 311.5,145C 312.094,144.536 312.761,144.369 313.5,144.5 Z"/></g>
  <g><path style="opacity:1" fill="#d5d5d5" d="M 264.5,148.5 C 261.746,150.691 258.079,152.358 253.5,153.5C 256.645,150.887 260.311,149.221 264.5,148.5 Z"/></g>
  <g><path style="opacity:0.69" fill="#d6d6d6" d="M 350.5,157.5 C 354.049,158.723 357.049,160.723 359.5,163.5C 358.504,163.414 357.671,163.748 357,164.5C 355.342,161.676 353.175,159.342 350.5,157.5 Z"/></g>
  <g><path style="opacity:1" fill="#d4d4d4" d="M 363.5,166.5 C 368.126,169.458 372.126,173.124 375.5,177.5C 370.848,174.514 366.848,170.847 363.5,166.5 Z"/></g>
  <g><path style="opacity:0.592" fill="#c4c4c4" d="M 239.5,152.5 C 239.171,165.011 239.505,177.345 240.5,189.5C 240.44,190.043 240.107,190.376 239.5,190.5C 238.175,177.673 238.175,165.006 239.5,152.5 Z"/></g>
  <g><path style="opacity:0.533" fill="#c9c9c9" d="M 310.5,185.5 C 312.953,184.355 315.287,184.688 317.5,186.5C 315.139,186.326 312.806,185.993 310.5,185.5 Z"/></g>
  <g><path style="opacity:0.571" fill="#b3b3b1" d="M 294.5,192.5 C 296.527,192.338 298.527,192.505 300.5,193C 301.056,193.383 301.389,193.883 301.5,194.5C 298.99,194.073 296.657,193.407 294.5,192.5 Z"/></g>
  <g><path style="opacity:0.917" fill="#aeaeac" d="M 301.5,194.5 C 302.117,194.611 302.617,194.944 303,195.5C 303.5,209.163 303.667,222.829 303.5,236.5C 302.77,223.836 302.103,209.836 301.5,194.5 Z"/></g>
  <g><path style="opacity:0.824" fill="#c1c1c1" d="M 400.5,221.5 C 401.219,223.764 401.552,226.097 401.5,228.5C 400.62,226.863 399.954,225.03 399.5,223C 399.57,222.235 399.903,221.735 400.5,221.5 Z"/></g>
  <g><path style="opacity:0.904" fill="#cececd" d="M 292.5,194.5 C 291.699,209.122 291.199,223.789 291,238.5C 290.184,239.823 289.017,240.489 287.5,240.5C 288.122,239.373 288.955,238.373 290,237.5C 290.333,223.5 290.667,209.5 291,195.5C 291.383,194.944 291.883,194.611 292.5,194.5 Z"/></g>
  <g><path style="opacity:0.29" fill="#c3c3c3" d="M 343.5,229.5 C 342.415,231.587 340.749,232.92 338.5,233.5C 339.353,231.107 341.019,229.774 343.5,229.5 Z"/></g>
  <g><path style="opacity:1" fill="#f6f6f5" d="M 294.5,192.5 C 296.657,193.407 298.99,194.073 301.5,194.5C 302.103,209.836 302.77,223.836 303.5,236.5C 304.789,237.501 306.122,237.334 307.5,236C 316.167,229.333 324.833,222.667 333.5,216C 342.951,212.559 347.451,215.725 347,225.5C 346.34,227.324 345.173,228.657 343.5,229.5C 341.019,229.774 339.353,231.107 338.5,233.5C 328.944,240.209 319.777,247.543 311,255.5C 309.682,259.983 306.849,262.983 302.5,264.5C 299.933,264.721 297.599,265.388 295.5,266.5C 285.364,263.536 281.197,256.869 283,246.5C 283.792,243.894 285.292,241.894 287.5,240.5C 289.017,240.489 290.184,239.823 291,238.5C 291.199,223.789 291.699,209.122 292.5,194.5C 292.833,193.5 293.5,192.833 294.5,192.5 Z M 295.5,245.5 C 292.446,247.28 291.279,249.946 292,253.5C 296.096,257.784 299.596,257.451 302.5,252.5C 302.434,247.767 300.101,245.433 295.5,245.5 Z"/></g>
  <g><path style="opacity:1" fill="#e1e1e1" d="M 181.5,223.5 C 186.151,232.132 190.817,240.799 195.5,249.5C 196.292,250.967 196.292,252.3 195.5,253.5C 193.812,251.971 192.479,250.137 191.5,248C 191.833,247.667 192.167,247.333 192.5,247C 190.302,244.417 188.469,241.584 187,238.5C 185.153,233.478 183.319,228.478 181.5,223.5 Z"/></g>
  <g><path style="opacity:1" fill="#efefef" d="M 349.5,257.5 C 344.035,258.227 339.035,257.227 334.5,254.5C 331.84,250.908 332.507,247.741 336.5,245C 341.167,244.333 345.833,244.333 350.5,245C 356.062,249.85 355.729,254.017 349.5,257.5 Z"/></g>
  <g><path style="opacity:1" fill="#d5d5d4" d="M 261.5,245.5 C 265.918,247.859 266.585,251.193 263.5,255.5C 260.18,258.536 256.514,259.203 252.5,257.5C 254.857,257.663 257.19,257.497 259.5,257C 258.398,254.609 259.064,254.109 261.5,255.5C 262.214,252.973 262.88,250.473 263.5,248C 262.619,247.292 261.953,246.458 261.5,245.5 Z"/></g>
  <g><path style="opacity:0.973" fill="#f4f4f2" d="M 261.5,245.5 C 261.953,246.458 262.619,247.292 263.5,248C 262.88,250.473 262.214,252.973 261.5,255.5C 259.064,254.109 258.398,254.609 259.5,257C 257.19,257.497 254.857,257.663 252.5,257.5C 250.418,257.376 248.918,256.376 248,254.5C 246.817,250.726 247.651,247.559 250.5,245C 254.358,244.19 258.024,244.357 261.5,245.5 Z"/></g>
  <g><path style="opacity:0.6" fill="#bdbdbb" d="M 334.5,254.5 C 339.035,257.227 344.035,258.227 349.5,257.5C 345.689,258.645 341.689,258.812 337.5,258C 335.574,257.578 334.574,256.411 334.5,254.5 Z"/></g>
  <g><path style="opacity:0.775" fill="#d1d1d0" d="M 102.5,149.5 C 103.333,216.665 103.833,283.999 104,351.5C 104.904,354.233 106.404,356.567 108.5,358.5C 105.482,357.647 103.649,355.647 103,352.5C 102.5,284.834 102.333,217.167 102.5,149.5 Z"/></g>
  <g><path style="opacity:0.633" fill="#c7c7c7" d="M 362.5,259.5 C 363.097,259.735 363.43,260.235 363.5,261C 363.046,263.03 362.38,264.863 361.5,266.5C 361.448,264.097 361.781,261.764 362.5,259.5 Z"/></g>
  <g><path style="opacity:0.294" fill="#b2b2b2" d="M 302.5,264.5 C 300.562,266.163 298.228,266.829 295.5,266.5C 297.599,265.388 299.933,264.721 302.5,264.5 Z"/></g>
  <g><path style="opacity:1" fill="#d4d4d4" d="M 358.5,276.5 C 358.539,277.583 358.873,278.583 359.5,279.5C 358.263,280.281 357.263,281.281 356.5,282.5C 357.609,284.214 356.942,284.881 354.5,284.5C 355.326,281.515 356.659,278.849 358.5,276.5 Z"/></g>
  <g><path style="opacity:1" fill="#b7b7b5" d="M 299.5,287.5 C 297.343,288.407 295.01,289.073 292.5,289.5C 292.611,288.883 292.944,288.383 293.5,288C 295.473,287.505 297.473,287.338 299.5,287.5 Z"/></g>
  <g><path style="opacity:0.972" fill="#f3f3f1" d="M 299.5,287.5 C 301.173,288.343 302.34,289.676 303,291.5C 303.667,296.167 303.667,300.833 303,305.5C 299.222,310.771 295.389,310.771 291.5,305.5C 291.267,300.105 291.6,294.772 292.5,289.5C 295.01,289.073 297.343,288.407 299.5,287.5 Z"/></g>
  <g><path style="opacity:0.889" fill="#c2c2c0" d="M 292.5,289.5 C 291.6,294.772 291.267,300.105 291.5,305.5C 290.35,300.684 290.184,295.684 291,290.5C 291.383,289.944 291.883,289.611 292.5,289.5 Z"/></g>
  <g><path style="opacity:0.973" fill="#b4b4b4" d="M 342.5,300.5 C 342.027,301.906 341.027,302.573 339.5,302.5C 339.973,301.094 340.973,300.427 342.5,300.5 Z"/></g>
  <g><path style="opacity:1" fill="#e2e2e0" d="M 351.5,343.5 C 345.862,347.818 339.529,350.818 332.5,352.5C 335.008,349.671 337.342,346.671 339.5,343.5C 340.646,344.145 341.646,344.978 342.5,346C 340.405,346.556 340.238,347.056 342,347.5C 345.13,346.016 348.297,344.683 351.5,343.5 Z"/></g>
  <g><path style="opacity:0.231" fill="#c7c7c4" d="M 332.5,352.5 C 326.953,355.39 320.953,357.056 314.5,357.5C 320.29,355.549 326.29,353.883 332.5,352.5 Z"/></g>
  <g><path style="opacity:0.673" fill="#aaa8a9" d="M 140.5,357.5 C 140.389,358.117 140.056,358.617 139.5,359C 129.839,359.5 120.172,359.666 110.5,359.5C 120.37,358.786 130.37,358.12 140.5,357.5 Z"/></g>
</svg>
