<?xml version="1.0" encoding="UTF-8"?>
<svg version="1.1" xmlns="http://www.w3.org/2000/svg" width="1024" height="1024">
<path d="M0 0 C1.14231079 -0.0038269 2.28462158 -0.00765381 3.46154785 -0.01159668 C5.86516202 -0.01430613 8.26880615 -0.00701313 10.67236328 0.00976562 C14.33303109 0.03118727 17.99173635 0.00992898 21.65234375 -0.015625 C23.99740013 -0.01298155 26.34245529 -0.00785623 28.6875 0 C29.77212524 -0.00809692 30.85675049 -0.01619385 31.97424316 -0.02453613 C39.17325629 0.06347274 45.93339491 0.93904378 51.43713379 5.99499512 C54.86201776 10.15921009 57.1426537 14.99004337 59.51379395 19.80102539 C60.22886418 21.24157812 60.94399975 22.68209842 61.65919495 24.12258911 C62.20444289 25.22368956 62.20444289 25.22368956 62.76070595 26.34703445 C64.44065183 29.73504429 66.1341473 33.11624217 67.82702637 36.49780273 C68.51496157 37.87348794 69.20282104 39.24921102 69.89060974 40.62496948 C70.24256346 41.32887691 70.59451717 42.03278435 70.95713615 42.75802231 C101.58600744 104.01576487 132.21487872 165.27350744 162.84375 226.53125 C162.84733253 224.90065927 162.84733253 224.90065927 162.85098743 223.2371273 C162.90975885 196.797361 162.98562709 170.35768599 163.07946491 143.91802025 C163.12444742 131.13204141 163.16385646 118.34609057 163.19018555 105.56005859 C163.21314569 94.41690869 163.24652157 83.27384724 163.29245156 72.13076746 C163.31641044 66.22955357 163.33512179 60.32842742 163.34136391 54.42716599 C163.34740264 48.87367547 163.36735885 43.32040955 163.39802551 37.76700211 C163.40682514 35.72804065 163.41052435 33.68904987 163.40875816 31.65007019 C163.40710837 28.86682537 163.42377973 26.08426759 163.44502258 23.30111694 C163.43775122 22.09001096 163.43775122 22.09001096 163.43033296 20.85443819 C163.50131346 15.22176255 164.60020967 11.01934685 168.4921875 6.703125 C169.06195313 6.23390625 169.63171875 5.7646875 170.21875 5.28125 C171.06566406 4.56195313 171.06566406 4.56195313 171.9296875 3.828125 C175.89918913 1.13858512 179.48680099 0.28029835 184.24145508 0.2565918 C185.2963765 0.24705978 186.35129791 0.23752777 187.43818665 0.22770691 C189.13360847 0.22907402 189.13360847 0.22907402 190.86328125 0.23046875 C192.03581955 0.22618362 193.20835785 0.2218985 194.41642761 0.21748352 C196.89520625 0.21174534 199.37400172 0.21123617 201.8527832 0.21557617 C205.63196814 0.21872974 209.41036528 0.19529149 213.18945312 0.16992188 C215.60156152 0.16764811 218.013672 0.16694575 220.42578125 0.16796875 C221.54998978 0.158759 222.6741983 0.14954926 223.83247375 0.14006042 C230.86825248 0.18123414 237.18661869 0.5518882 242.8671875 5.1796875 C243.31320312 5.74945313 243.75921875 6.31921875 244.21875 6.90625 C244.91097656 7.75316406 244.91097656 7.75316406 245.6171875 8.6171875 C248.76672922 13.53207745 249.12509975 17.99301235 249.07080078 23.71801758 C249.07109283 24.52829407 249.07138489 25.33857056 249.07168579 26.17340088 C249.0702969 28.84097145 249.05475652 31.50825971 249.0390625 34.17578125 C249.0353308 36.02951403 249.03248457 37.88324879 249.03048706 39.73698425 C249.02286295 44.60811846 249.00322494 49.47913278 248.9810791 54.35021973 C248.96059435 59.32395811 248.95147972 64.29771593 248.94140625 69.27148438 C248.91997791 79.02479216 248.8858567 88.7780111 248.84375 98.53125 C250.44303765 97.74942212 252.04030619 96.96346315 253.63671875 96.17578125 C254.97126099 95.51993042 254.97126099 95.51993042 256.33276367 94.85083008 C263.41824124 91.12725144 267.86947438 85.7287525 270.70166016 78.27270508 C273.74429059 67.64747201 273.40914278 56.74103152 273.53125 45.78125 C273.56448003 43.71612492 273.59897479 41.65101979 273.63476562 39.5859375 C273.71901452 34.56781948 273.7861284 29.54974151 273.84375 24.53125 C300.37091936 12.39040878 329.49382612 3.49421724 358.91796875 3.328125 C359.75575363 3.32102005 360.59353851 3.3139151 361.45671082 3.30659485 C396.90622083 3.07431986 396.90622083 3.07431986 412.84375 6.53125 C414.37467285 6.85391846 414.37467285 6.85391846 415.93652344 7.18310547 C457.2774769 16.17796875 494.61806651 36.80270023 524.40625 66.78125 C525.32446533 67.70437988 526.24268066 68.62750977 527.1887207 69.57861328 C533.69872477 76.20168858 539.58546707 82.85726144 544.84375 90.53125 C545.24561523 91.10472168 545.64748047 91.67819336 546.06152344 92.26904297 C580.76544803 141.85177661 594.30007791 201.92767299 584.34423828 261.75537109 C579.13208949 290.66372805 568.86061468 317.86784305 552.84375 342.53125 C552.36566895 343.27616699 551.88758789 344.02108398 551.39501953 344.78857422 C544.48604191 355.48233731 537.10349239 365.04823739 528.18896484 374.1328125 C526.46563685 375.92432298 524.87149623 377.80891434 523.28125 379.71875 C510.60699087 394.24326593 494.27535615 405.03025865 477.63818359 414.50634766 C475.91229121 415.49210224 474.1999446 416.50145878 472.48828125 417.51171875 C441.24674619 435.1976047 405.77769458 442.7799175 370.15625 442.71875 C369.44799072 442.71781342 368.73973145 442.71687683 368.01000977 442.71591187 C357.48951723 442.68579822 347.21898497 442.4310708 336.84375 440.53125 C335.95880859 440.37527344 335.07386719 440.21929688 334.16210938 440.05859375 C323.25460924 438.09393395 312.52004125 435.69402641 301.96875 432.28125 C300.83228027 431.92317261 300.83228027 431.92317261 299.67285156 431.55786133 C290.54085538 428.44118825 282.63459421 423.9266721 273.84375 419.53125 C273.84375 387.19125 273.84375 354.85125 273.84375 321.53125 C281.84375 327.53125 281.84375 327.53125 284.7578125 329.8046875 C299.1339534 340.94930393 315.12886222 349.09949287 332.53125 354.34375 C333.49091675 354.63608521 333.49091675 354.63608521 334.4699707 354.93432617 C368.42994942 364.59157541 405.78561641 358.40004903 436.43701172 341.81787109 C449.65180337 334.25354208 462.11920941 324.22584838 471.84375 312.53125 C472.483125 311.79132813 473.1225 311.05140625 473.78125 310.2890625 C479.43740637 303.55028245 483.77885033 296.29151301 487.84375 288.53125 C488.45347656 287.36722656 489.06320312 286.20320313 489.69140625 285.00390625 C506.65904964 251.24401949 508.41039655 211.14468065 496.640625 175.4609375 C484.38103013 140.63317193 459.49759285 113.55867849 426.625 97.234375 C418.89474359 93.53707473 411.12557886 90.70466314 402.84375 88.53125 C402.08626465 88.32532227 401.3287793 88.11939453 400.54833984 87.90722656 C366.36596669 78.91223916 330.26636227 85.74448841 300.015625 103.22998047 C294.33431301 106.63391403 289.03387172 110.4235051 283.84375 114.53125 C283.23047852 115.00900879 282.61720703 115.48676758 281.98535156 115.97900391 C272.71346111 123.28635051 264.79871581 131.29003658 258.37718678 141.2522316 C256.84375 143.53125 256.84375 143.53125 255.06982708 145.64016342 C247.17023488 156.34671539 248.9058524 169.22764757 249.02075195 181.91894531 C249.01941116 184.60726365 249.01527163 187.29544054 249.00756836 189.98373413 C248.99635897 195.75573988 249.01008691 201.52724232 249.04070473 207.29917145 C249.08462729 215.65286662 249.08580146 224.00615902 249.07609489 232.35994443 C249.06110699 245.92753944 249.07427152 259.49494381 249.1081543 273.0625 C249.11017143 273.87304395 249.11218857 274.68358789 249.11426684 275.51869377 C249.11835909 277.15919101 249.12245298 278.79968824 249.12654851 280.44018547 C249.12857534 281.25354365 249.13060218 282.06690183 249.13269043 282.90490723 C249.1347239 283.71898936 249.13675737 284.5330715 249.13885247 285.37182279 C249.16101298 294.42170143 249.1758847 303.4715875 249.18823242 312.52148438 C249.1893461 313.33224526 249.19045979 314.14300614 249.19160721 314.97833553 C249.20956865 328.50274916 249.2114906 342.02713386 249.20444459 355.55155635 C249.20107532 363.88392838 249.2136006 372.21600289 249.24684598 380.54831097 C249.26890265 386.25486303 249.27728822 391.9613262 249.27499334 397.66792014 C249.27423769 400.95819114 249.28237534 404.24803074 249.30373955 407.53824234 C249.32605544 411.10837401 249.32381577 414.67769072 249.31562805 418.24786377 C249.32816331 419.28249543 249.34069856 420.3171271 249.35361367 421.38311124 C249.30756888 427.60131744 248.44241333 432.35707886 244.84375 437.53125 C240.39078721 441.76156465 236.67217174 443.77554391 230.52783203 443.8059082 C229.4663797 443.81544022 228.40492737 443.82497223 227.31130981 443.83479309 C226.1695932 443.83388168 225.02787659 443.83297028 223.8515625 443.83203125 C222.67286591 443.83631638 221.49416931 443.8406015 220.27975464 443.84501648 C217.78660728 443.85075906 215.29344317 443.85126058 212.80029297 443.84692383 C208.99026804 443.84376782 205.18102246 443.86721144 201.37109375 443.89257812 C198.94791765 443.89485154 196.52473945 443.89555442 194.1015625 443.89453125 C192.96389435 443.903741 191.8262262 443.91295074 190.65408325 443.92243958 C184.13602863 443.88441631 179.24030882 443.78494451 174.3026886 439.05500793 C170.54556765 434.96920941 168.04751199 430.56118828 165.70703125 425.5625 C165.16490746 424.43837959 165.16490746 424.43837959 164.61183167 423.29154968 C163.44988646 420.8761355 162.30299422 418.4539124 161.15625 416.03125 C160.35334752 414.35540999 159.54946716 412.68003815 158.74462891 411.00512695 C156.78258477 406.91619542 154.8320951 402.82189746 152.88641357 398.72515869 C151.43063487 395.6619985 149.96754164 392.60238281 148.50390625 389.54296875 C147.1345797 386.68038 145.76580793 383.81755771 144.40136719 380.95263672 C141.65691851 375.1961183 138.83904805 369.48229909 135.96362305 363.7902832 C132.90107003 357.70289144 129.96793431 351.55513639 127.03125 345.40625 C123.19032826 337.3667743 119.28852796 329.3641127 115.28125 321.40625 C111.78734771 314.46211919 108.36521139 307.4910446 105.03125 300.46875 C99.49767301 288.81977043 93.82688788 277.23894932 88.15625 265.65625 C74.7632332 238.2915636 74.7632332 238.2915636 68.63021851 225.66448975 C67.94581205 224.25585741 67.26078591 222.84752597 66.57510376 221.43951416 C65.6368957 219.51258698 64.70092878 217.58458819 63.765625 215.65625 C63.24581055 214.58632813 62.72599609 213.51640625 62.19042969 212.4140625 C60.9762087 209.81480192 59.89676925 207.19857126 58.84375 204.53125 C58.84228344 205.67831169 58.84081688 206.82537338 58.83930588 208.00719452 C58.80271255 235.91642707 58.74326504 263.8255396 58.65984726 291.73467255 C58.6518958 294.4214221 58.64402947 297.10817188 58.63623047 299.79492188 C58.63331841 300.79662071 58.63331841 300.79662071 58.63034752 301.81855589 C58.59934381 312.62517865 58.58235143 323.43178018 58.57055578 334.23843902 C58.55813575 345.33073634 58.53031854 356.42293078 58.48913693 367.51516008 C58.46649817 373.74398564 58.45084078 379.97265248 58.45186615 386.20152283 C58.45261132 392.06531764 58.4347176 397.92876125 58.40258217 403.79246521 C58.39406939 405.94346516 58.39234256 408.09450443 58.39794731 410.24551392 C58.40458776 413.18585503 58.38666484 416.12507895 58.36273193 419.06530762 C58.37049235 419.9135773 58.37825277 420.76184699 58.38624835 421.63582182 C58.2905034 428.29512724 56.47114507 433.55353559 52.02734375 438.58984375 C51.45113281 439.04488281 50.87492187 439.49992187 50.28125 439.96875 C49.70246094 440.44183594 49.12367188 440.91492188 48.52734375 441.40234375 C45.18116324 443.64607036 42.17866656 443.66587149 38.27416992 443.69238281 C36.56175362 443.70679413 36.56175362 443.70679413 34.81474304 443.72149658 C33.58037003 443.72574646 32.34599701 443.72999634 31.07421875 443.734375 C29.17087517 443.74292511 29.17087517 443.74292511 27.2290802 443.75164795 C24.54159967 443.76110201 21.85423091 443.76799671 19.16674805 443.77148438 C15.73361934 443.77696164 12.30088873 443.80097702 8.86788464 443.82945633 C5.58252639 443.85263392 2.2971473 443.85453593 -0.98828125 443.859375 C-2.21658157 443.8717218 -3.4448819 443.8840686 -4.71040344 443.89678955 C-11.61795301 443.87877997 -16.47717728 443.56569887 -21.984375 439.0234375 C-22.45359375 438.48976563 -22.9228125 437.95609375 -23.40625 437.40625 C-24.12554687 436.62894531 -24.12554687 436.62894531 -24.859375 435.8359375 C-29.53114757 427.53369107 -28.44035995 417.21946604 -28.41694641 408.00680542 C-28.41996941 406.3211065 -28.42385964 404.63540896 -28.42853898 402.94971383 C-28.43880805 398.3316964 -28.43663996 393.7137567 -28.43235838 389.09573293 C-28.42988927 384.11001708 -28.43890749 379.12431985 -28.44639587 374.13861084 C-28.45913851 364.37774706 -28.46093721 354.6169108 -28.45859561 344.85604011 C-28.45681226 336.92391218 -28.45856246 328.99179261 -28.46282005 321.05966568 C-28.46341524 319.93055876 -28.46401043 318.80145185 -28.46462366 317.63812957 C-28.4658354 315.34436749 -28.46704954 313.05060542 -28.46826603 310.75684334 C-28.47913933 289.2525272 -28.47697973 267.74822675 -28.47088119 246.24390973 C-28.46570894 226.56508458 -28.47697598 206.88630889 -28.49597941 187.20749353 C-28.51534252 167.00141838 -28.5236167 146.79536665 -28.51985615 126.58928216 C-28.51794221 115.24490806 -28.52045073 103.9005761 -28.53457069 92.55620956 C-28.5464658 82.90173934 -28.5479102 73.24733718 -28.53578053 63.59286605 C-28.52987947 58.6664438 -28.52882637 53.74014619 -28.54078293 48.81373215 C-28.55159932 44.30478106 -28.54858915 39.79605933 -28.53452124 35.28711917 C-28.53186265 33.65537685 -28.53427715 32.02361679 -28.54225711 30.39189182 C-28.55235113 28.1740949 -28.54395224 25.95709711 -28.53098011 23.7393322 C-28.53103513 22.50746174 -28.53109014 21.27559128 -28.53114682 20.00639141 C-27.88530166 14.01966889 -25.50900663 8.7694604 -21.15625 4.53125 C-14.31053952 0.35370313 -7.8602576 -0.05867825 0 0 Z " fill="#000000" transform="translate(240.15625,292.46875)"/>
<path d="M0 0 C4.17652173 1.76342029 6.54045327 4.22058408 9 8 C9.39538495 10.94542727 9.56472671 13.51951895 9.54589844 16.4621582 C9.55623611 17.3016954 9.56657379 18.1412326 9.57722473 19.00621033 C9.60663817 21.77126342 9.60815158 24.53558405 9.609375 27.30078125 C9.62435764 29.22179052 9.64108497 31.1427869 9.65948486 33.06376648 C9.70316112 38.11240228 9.72315813 43.16086431 9.73822021 48.20965576 C9.75779025 53.36448442 9.79976041 58.51912538 9.83984375 63.67382812 C9.91514889 73.7824942 9.96543858 83.89111826 10 94 C10.52483475 93.61321075 11.04966949 93.22642151 11.59040833 92.82791138 C28.81782443 80.13206115 28.81782443 80.13206115 34.44921875 75.9921875 C41.84786221 70.551493 49.22722915 65.08840404 56.5625 59.5625 C76.73512583 44.40330672 76.73512583 44.40330672 83.375 45.0625 C88.2248782 45.75764921 91.54143883 47.55081163 95 51 C98.56931278 55.95098224 98.8224503 61.09770961 98 67 C93.45583503 77.32764767 79.02855339 84.7014156 70.16015625 91.203125 C63.25023945 96.27592842 56.40101596 101.42909781 49.55078125 106.58203125 C46.82643822 108.63134575 44.09721405 110.67324908 41.35546875 112.69921875 C38.55167038 114.7764983 35.7678895 116.87519943 33 119 C31.81470703 119.89912109 31.81470703 119.89912109 30.60546875 120.81640625 C26.38971144 124.21179997 24.40043576 126.73631697 22.8203125 131.88671875 C19.98576163 139.18906169 14.01652955 144.75937604 7 148 C-0.90083561 150.53546484 -9.38065444 149.60590348 -16.81640625 146.19140625 C-24.18063907 142.17335435 -28.3552018 136.30780481 -31.3125 128.5625 C-33.01427772 119.74419724 -31.99106931 112.14009651 -28 104 C-25.30320696 100.3356187 -22.43204036 96.99475336 -19 94 C-18.34 94 -17.68 94 -17 94 C-17.00444122 92.98824203 -17.00888245 91.97648407 -17.01345825 90.93406677 C-17.0540535 81.38548362 -17.08400801 71.83691805 -17.10362434 62.28826809 C-17.1140484 57.37956067 -17.12818247 52.47092309 -17.15087891 47.56225586 C-17.17265638 42.8225187 -17.18457899 38.0828486 -17.18975449 33.34306526 C-17.19344144 31.5374248 -17.20064111 29.73178788 -17.21146011 27.92617607 C-17.22604022 25.39137805 -17.22797522 22.85685489 -17.22705078 20.32202148 C-17.23424133 19.58042786 -17.24143188 18.83883423 -17.24884033 18.07476807 C-17.22436344 11.84647604 -16.59947391 6.83354326 -12.4375 2.0625 C-8.57160213 -0.80849768 -4.6224077 -0.7789613 0 0 Z M-13.8125 111.6875 C-15.52779235 115.02780616 -16.12895529 118.28178907 -16 122 C-14.62405481 125.64625477 -13.08095666 128.56090931 -10 131 C-5.52573668 132.49142111 -1.68085977 132.74270548 2.6875 130.8125 C6.88492636 127.52262528 8.81102008 125.48821684 9.5 120.0625 C9.26717479 115.80741849 7.79537931 113.24868406 5 110 C2.24348899 107.8238071 0.54600171 107.06970235 -2.9375 106.625 C-7.37024351 107.16778492 -10.53982188 108.64052382 -13.8125 111.6875 Z " fill="#000000" transform="translate(613,396)"/>
<path d="M0 0 C1.25006836 -0.02320313 1.25006836 -0.02320313 2.52539062 -0.046875 C8.00913283 -0.01219521 11.23248413 0.84188314 15.5625 4.5 C18.04484253 8.27747776 17.77634442 11.94315893 17.17578125 16.27734375 C16.15197374 19.98783082 14.33798746 21.85667861 11.5625 24.5 C7.58584343 25.82555219 3.91580334 25.80174047 -0.25 25.875 C-1.04470703 25.91238281 -1.83941406 25.94976563 -2.65820312 25.98828125 C-6.78766947 26.04976214 -9.59231211 25.84231703 -12.9140625 23.25 C-16.36490124 19.48933363 -17.31617381 16.552369 -17.4375 11.5 C-14.71592828 1.73436031 -9.26846306 -0.17124181 0 0 Z " fill="#000000" transform="translate(525.4375,502.5)"/>
<path d="M0 0 C1.08925781 -0.020625 2.17851563 -0.04125 3.30078125 -0.0625 C4.35394531 -0.06765625 5.40710938 -0.0728125 6.4921875 -0.078125 C7.93247314 -0.09214355 7.93247314 -0.09214355 9.40185547 -0.10644531 C12.6284604 0.31590032 14.49193078 1.37239963 17.125 3.25 C19.75239142 6.69202954 21.125 10.04395735 21.125 14.375 C19.46057637 19.16021794 17.35133491 22.43244339 13.125 25.25 C8.89205332 25.7714156 4.63652574 25.71286252 0.375 25.75 C-0.79289063 25.79125 -1.96078125 25.8325 -3.1640625 25.875 C-12.83152651 25.96268675 -12.83152651 25.96268675 -17.140625 22.40625 C-20.19898609 19.35359126 -20.80789479 16.82518756 -21.3125 12.5 C-21.2794322 8.02757967 -19.43252835 5.79754307 -16.48046875 2.59765625 C-12.05627069 -1.11608665 -5.43334193 0.02553862 0 0 Z " fill="#000000" transform="translate(704.875,502.75)"/>
<path d="M0 0 C4.27640437 1.76634094 5.93602862 3.92888704 8 8 C8.38818359 10.76733398 8.38818359 10.76733398 8.3984375 13.74609375 C8.40423828 15.37321289 8.40423828 15.37321289 8.41015625 17.03320312 C8.39855469 18.15662109 8.38695312 19.28003906 8.375 20.4375 C8.38660156 21.55705078 8.39820313 22.67660156 8.41015625 23.83007812 C8.37354537 34.1116345 8.37354537 34.1116345 5 39 C1.37180947 42.20134458 -2.11078125 42.53041389 -6.78515625 42.34375 C-10.38475441 41.78508221 -12.35285535 40.45806289 -15 38 C-18.22017279 32.1270182 -18.4588359 27.05587876 -18.375 20.4375 C-18.38660156 19.51775391 -18.39820313 18.59800781 -18.41015625 17.65039062 C-18.38732407 12.35712947 -17.99207231 8.5522243 -15 4 C-10.29548623 -0.25646484 -6.09169228 -0.92332489 0 0 Z " fill="#000000" transform="translate(614,591)"/>
</svg>
