<svg enable-background="new 0 0 554.7 150.6" viewBox="0 0 554.7 150.6" xmlns="http://www.w3.org/2000/svg"><path d="m0 0h150.6v150.6h-150.6z" fill="#0e2b4c"/><path d="m46.1 88.5-.3.4c-.4.5-1 1.1-1.8 1.7-.7.6-1.6 1.1-2.6 1.6s-2.1.8-3.3 1.2c-1.2.3-2.5.5-3.9.5-2.5 0-4.8-.4-7-1.3s-4.1-2.1-5.7-3.7-2.9-3.5-3.9-5.8c-.9-2.2-1.4-4.7-1.4-7.3s.5-5.1 1.4-7.3 2.2-4.2 3.9-5.8c1.6-1.6 3.6-2.8 5.8-3.7s4.5-1.3 7-1.3c3.5.1 6.7.9 9.4 2.5s4.9 3.8 6.4 6.6l-5.6 1.5c-1-1.6-2.5-2.9-4.3-3.9-1.8-.9-3.8-1.4-5.9-1.4-1.8 0-3.4.3-5 .9-1.5.6-2.8 1.4-3.9 2.6s-1.9 2.5-2.5 4-.9 3.2-.9 5.1.3 3.7 1 5.2 1.5 2.9 2.7 4c1.1 1.1 2.5 1.9 4 2.5s3.2.9 5 .9c1.6 0 3-.2 4.3-.6s2.4-.9 3.4-1.6c.9-.6 1.7-1.3 2.4-2.1.6-.7 1.1-1.5 1.4-2.2v-2.9h-10.2v-4.5h14.9v18.7h-4.8c0-1.7 0-2.9 0-3.5.1-.6.1-.9 0-1z" fill="#fff"/><path d="m93.8 58-.2 34.9h-5.4v-13.2c0-1.6 0-3.1 0-4.6s.1-2.8.1-3.9 0-2 .1-2.7v-1l-.3.6c-.3.4-.5.9-.8 1.4s-.6 1.1-1 1.7l-.8 1.5-6.8 11.7h-2.9l-6.8-11.7c-.3-.4-.5-.9-.9-1.5-.3-.6-.7-1.2-1-1.7s-.6-1-.9-1.4l-.3-.6v1 2.7c0 1.1 0 2.4.1 3.9v4.6 13.3h-5.4v-35h5.2l7.9 13.4c.7 1.2 1.3 2.2 1.8 3 .4.8.8 1.4 1 1.8.3.4.4.7.5.9l.1.2h.1l.1-.2c.1-.1.2-.4.5-.9.2-.4.6-1 1-1.8s1-1.8 1.7-3l8.2-13.4z" fill="#fff"/><path d="m133.2 58v34.9h-5.5v-15.3h-17v15.3h-5.5v-34.9h5.5v14.5h17v-14.5z" fill="#fff"/><g fill="#0e2b4c"><path d="m200.8 69.2h-.3c-1.2-1.9-2.8-3.5-4.9-4.6s-4.3-1.6-6.8-1.6c-2 0-3.8.3-5.5 1s-3.1 1.6-4.4 2.9c-1.2 1.2-2.2 2.7-2.9 4.5-.7 1.7-1 3.6-1 5.7s.3 4 1 5.7 1.7 3.2 2.9 4.5c1.2 1.2 2.7 2.2 4.4 2.9s3.5 1 5.5 1c2.7 0 5.1-.6 7.3-1.9s3.9-3 5-5.2l4 1.1c-.7 1.5-1.6 2.9-2.7 4.2-1.1 1.2-2.3 2.3-3.7 3.2s-2.9 1.6-4.6 2c-1.6.5-3.4.7-5.2.7-2.5 0-4.8-.4-7-1.3s-4.1-2.1-5.7-3.7-2.9-3.5-3.9-5.8c-.9-2.2-1.4-4.7-1.4-7.3s.5-5.1 1.4-7.3 2.2-4.2 3.9-5.8c1.6-1.6 3.6-2.8 5.8-3.7s4.5-1.3 7-1.3c1.7 0 3.3.2 4.9.6s3.1 1 4.4 1.8 2.6 1.7 3.7 2.9c1.1 1.1 2 2.4 2.8 3.8z"/><path d="m211.1 77.3c0-2.6.5-5.1 1.4-7.3s2.2-4.2 3.9-5.8c1.6-1.6 3.6-2.8 5.8-3.7s4.5-1.3 7-1.3 4.8.4 7 1.3 4.1 2.1 5.8 3.7c1.6 1.6 2.9 3.5 3.9 5.7.9 2.2 1.4 4.7 1.4 7.3s-.4 5.1-1.4 7.3c-.9 2.2-2.2 4.1-3.9 5.7-1.6 1.6-3.6 2.8-5.8 3.7-2.2.8-4.5 1.3-7 1.3s-4.8-.4-7-1.3-4.1-2.1-5.7-3.7-2.9-3.5-3.9-5.8c-.9-2.2-1.4-4.7-1.4-7.3zm4.4-.1c0 2.1.3 4 1 5.7s1.7 3.2 2.9 4.5c1.2 1.2 2.7 2.2 4.4 2.9s3.5 1 5.5 1c1.9 0 3.8-.3 5.5-1s3.2-1.6 4.4-2.9c1.2-1.2 2.2-2.7 2.9-4.5.7-1.7 1-3.7 1-5.8s-.3-4.1-1-5.8-1.7-3.2-2.9-4.5c-1.2-1.2-2.7-2.2-4.4-2.9s-3.5-1-5.5-1-3.8.3-5.5 1-3.1 1.6-4.4 2.9c-1.2 1.2-2.2 2.7-2.9 4.5-.7 1.7-1 3.7-1 5.8z"/><path d="m289.2 59.7v35h-4v-15.6c0-1.3 0-2.7 0-4.2s.1-2.8.1-4 0-2.2 0-3v-1.2l-.3.5c-.2.3-.4.8-.7 1.3s-.6 1.1-.9 1.7-.6 1.1-.9 1.7l-8.1 14.1h-2.1l-8.4-14c-.3-.5-.6-1.1-1-1.7-.3-.6-.7-1.2-1-1.7s-.5-1-.7-1.3l-.3-.5v1.1 3c0 1.2 0 2.5.1 4v4.2 15.7h-4v-35.1h3.8l8.7 14.7c.7 1.2 1.3 2.3 1.8 3.1.4.8.8 1.5 1 2s.4.8.5 1l.2.3.1-.3c.1-.2.3-.5.5-1s.6-1.1 1-2c.4-.8 1-1.9 1.8-3.1l8.7-14.7z"/><path d="m333.1 59.7v35h-4v-15.6c0-1.3 0-2.7 0-4.2 0-1.4.1-2.8.1-4s0-2.2 0-3v-1.2l-.3.5c-.2.3-.4.8-.7 1.3s-.6 1.1-.9 1.7-.6 1.1-.9 1.7l-8.1 14.1h-2.1l-8.3-14c-.3-.5-.6-1.1-1-1.7-.3-.6-.7-1.2-1-1.7s-.5-1-.7-1.3l-.3-.5v1.1 3c0 1.2 0 2.5.1 4v4.2 15.7h-4v-35.1h3.8l8.7 14.7c.7 1.2 1.3 2.3 1.8 3.1.4.8.8 1.5 1 2s.4.8.5 1l.2.3.1-.3c.1-.2.3-.5.5-1s.6-1.1 1-2c.4-.8 1-1.9 1.8-3.1l8.7-14.7z"/><path d="m372.6 59.7v20.4c0 4.9-1.2 8.7-3.7 11.3s-6 3.8-10.6 3.8-8.1-1.2-10.6-3.8-3.7-6.4-3.7-11.3v-20.4h4.1v20.5c0 7.5 3.4 11.3 10.2 11.3s10.3-3.8 10.3-11.3v-20.5z"/><path d="m412 59.7v34.9h-3.8l-15.5-20.8c-.7-1-1.4-2-2.1-2.9-.6-.9-1.2-1.7-1.6-2.3s-.8-1.1-1-1.5l-.4-.6v.7 2.1 3.1s0 2.5 0 3.9v18.3h-4.1v-34.9h3.8l15.5 20.8c.6.9 1.3 1.7 1.9 2.6.6.8 1.1 1.6 1.6 2.3s.9 1.2 1.2 1.6l.4.6v-.8c0-.5 0-1.2 0-2.1s0-1.9 0-3.1 0-2.3 0-3.6v-18.3z"/><path d="m423.8 94.6v-34.9h4.1v34.9z"/><path d="m463.5 59.7v3.8h-11.7v31h-4v-31h-11.7v-3.8z"/><path d="m471.7 94.6v-34.9h4.1v34.9z"/><path d="m511.1 90.8v3.8h-23.6v-34.9h23.3v3.8h-19.2v10.8h15.4v3.7h-15.4v12.8z"/><path d="m540.1 69.4-.5.2c-.2-1-.5-2-1-2.8s-1.1-1.5-1.9-2.1-1.6-1-2.6-1.3c-.9-.3-2-.4-3.1-.4-2.3 0-4.2.5-5.6 1.5s-2.2 2.4-2.2 4.1c0 .9.3 1.7.8 2.4.5.6 1.3 1.2 2.2 1.6s1.9.8 3 1.2c1.1.3 2.3.7 3.4 1 1.2.3 2.5.8 3.9 1.3 1.3.5 2.6 1.1 3.7 1.9s2.1 1.7 2.8 2.9c.7 1.1 1.1 2.6 1.1 4.3 0 1.4-.3 2.8-.9 4s-1.4 2.3-2.5 3.2-2.4 1.6-4 2.1c-1.5.4-3.3.7-5.2.7-1.8 0-3.5-.2-5.1-.7-1.5-.5-2.8-1.2-3.9-2.1s-2-2-2.7-3.2-1.2-2.6-1.5-4l3.9-1c.1 1 .4 1.9.9 2.9.4.9 1.1 1.7 1.9 2.4s1.7 1.2 2.8 1.6 2.4.6 3.8.6c2.6 0 4.6-.6 6.1-1.8s2.2-2.7 2.2-4.6c0-1.2-.3-2.3-1-3.1s-1.5-1.5-2.6-2c-1-.5-2.2-1-3.5-1.3s-2.5-.7-3.8-1.1c-1-.3-2-.6-3.2-1.1-1.1-.4-2.2-1-3.2-1.6s-1.8-1.5-2.4-2.5-.9-2.3-.9-3.8c0-1.3.3-2.6.9-3.7s1.4-2.1 2.5-3c1-.8 2.3-1.5 3.8-2s3.1-.7 4.9-.7c1.6 0 3.1.2 4.5.6s2.6 1.1 3.7 1.9 2 1.8 2.7 2.9 1.2 2.4 1.5 3.8z"/><path d="m546.8 46v1h-2v5.1h-1.2v-5.1h-2v-1zm6.7 6.1-.2-3.6c0-.5 0-1.1 0-1.7h-.1c-.2.5-.3 1.3-.5 1.8l-1.1 3.4h-1.3l-1.1-3.5c-.1-.5-.3-1.2-.4-1.7h-.1v1.7l-.2 3.6h-1.2l.5-6.2h1.8l1.1 3c.1.5.3.9.4 1.6.2-.6.3-1.1.4-1.5l1.1-3h1.8l.5 6.2h-1.4z"/></g></svg>